<?xml version="1.0" standalone="no"?>
<!DOCTYPE svg PUBLIC "-//W3C//DTD SVG 20010904//EN"
 "http://www.w3.org/TR/2001/REC-SVG-20010904/DTD/svg10.dtd">
<svg version="1.0" xmlns="http://www.w3.org/2000/svg"
 width="400.000000pt" height="400.000000pt" viewBox="0 0 400.000000 400.000000"
 preserveAspectRatio="xMidYMid meet">
<metadata>
Created by potrace 1.14, written by Peter Selinger 2001-2017
</metadata>
<g transform="translate(0.000000,400.000000) scale(0.100000,-0.100000)"
fill="#000000" stroke="none">
<path d="M1295 3280 c-233 -33 -429 -146 -530 -305 -100 -159 -131 -388 -76
-565 49 -157 174 -304 321 -377 91 -46 211 -74 246 -58 14 7 -2 11 -56 15
-249 18 -452 273 -467 590 -10 204 45 350 181 486 129 129 272 189 471 200
197 11 350 -39 447 -145 l50 -55 -77 -13 c-42 -7 -84 -18 -94 -24 -12 -8 -9
-9 14 -5 17 3 60 9 97 12 l68 7 21 -48 c27 -61 36 -191 19 -266 -19 -81 -74
-189 -121 -236 -71 -72 -112 -86 -271 -91 l-138 -5 0 212 c0 220 3 241 44 273
20 17 17 18 -82 18 l-102 0 32 -29 33 -29 3 -454 c2 -249 0 -468 -3 -487 -4
-18 -17 -44 -30 -57 l-24 -24 228 0 c125 0 254 5 286 11 166 31 267 138 267
284 1 67 -26 142 -65 183 -48 52 -166 101 -242 102 -27 0 -25 3 27 29 115 59
188 140 229 256 28 81 23 216 -11 293 -12 29 -21 54 -19 56 7 7 114 -25 167
-49 29 -13 80 -50 113 -81 l60 -58 -3 -479 -3 -479 -37 -34 -38 -34 88 0 c85
1 86 1 61 17 -60 37 -59 28 -59 535 l1 463 22 -29 c58 -75 136 -233 248 -495
149 -350 243 -538 320 -641 65 -85 149 -168 219 -212 94 -60 237 -95 333 -83
72 10 57 27 -17 19 -158 -16 -307 56 -428 206 -36 45 -118 189 -152 267 l-18
41 192 459 c106 252 194 460 196 462 2 2 4 -213 4 -478 l0 -482 -25 -24 -24
-25 90 0 91 0 -26 31 -27 31 3 485 3 485 28 24 28 24 -68 0 -68 0 -200 -480
c-110 -264 -202 -480 -205 -480 -3 0 -30 60 -59 133 -217 536 -359 771 -539
888 -85 56 -156 84 -234 94 -51 6 -61 12 -120 69 -69 68 -154 115 -253 141
-72 19 -256 27 -340 15z m422 -900 c127 -16 198 -73 230 -179 18 -65 13 -163
-13 -213 -27 -55 -85 -107 -141 -128 -46 -17 -78 -20 -223 -20 l-170 0 0 275
0 275 123 0 c67 0 155 -5 194 -10z"/>
<path d="M2510 705 l0 -395 64 0 c48 0 70 5 87 19 23 19 24 24 27 189 3 157 2
172 -16 190 -18 18 -18 19 0 42 15 19 18 41 18 157 0 129 -7 167 -34 185 -6 4
-41 8 -78 8 l-68 0 0 -395z m109 341 c8 -9 11 -59 9 -152 l-3 -139 -27 -3 -28
-3 0 155 c0 146 1 156 19 156 10 0 24 -6 30 -14z m-5 -342 c14 -5 16 -30 16
-168 0 -167 -4 -186 -42 -186 -17 0 -18 13 -18 180 0 189 0 191 44 174z"/>
<path d="M2813 1012 c-26 -4 -24 4 -53 -352 -11 -135 -22 -269 -26 -297 l-5
-53 30 0 c29 0 31 2 31 38 0 73 11 112 31 112 15 0 19 -8 19 -37 0 -21 3 -55
6 -76 6 -32 10 -37 35 -37 26 0 27 3 23 32 -2 18 -16 175 -30 348 -14 173 -28
317 -32 321 -4 3 -17 3 -29 1z m19 -395 c3 -99 2 -107 -16 -107 -17 0 -18 6
-12 61 3 34 6 98 7 143 1 115 16 46 21 -97z"/>
<path d="M3360 1012 c-6 -2 -10 -130 -10 -353 l0 -349 30 0 30 0 0 170 c0 94
2 170 4 170 2 0 11 -3 20 -6 14 -5 16 -30 16 -170 l0 -164 30 0 30 0 0 162 c0
136 -3 164 -17 180 -15 17 -15 19 0 36 26 28 25 282 0 304 -16 15 -109 28
-133 20z m85 -182 c0 -120 -2 -135 -17 -138 -17 -3 -18 9 -18 138 0 129 1 141
18 138 15 -3 17 -18 17 -138z"/>
<path d="M2950 660 l0 -350 68 0 c55 0 73 4 90 20 22 21 22 25 22 330 0 368 6
350 -110 350 l-70 0 0 -350z m115 0 l0 -305 -27 -3 -28 -3 0 311 0 311 28 -3
27 -3 0 -305z"/>
<path d="M3190 660 l0 -350 55 0 c48 0 55 3 55 19 0 14 -8 21 -27 23 l-28 3
-3 153 -3 152 31 0 c23 0 30 4 30 19 0 14 -8 21 -27 23 l-28 3 -3 133 -3 132
31 0 c23 0 30 4 30 20 0 18 -7 20 -55 20 l-55 0 0 -350z"/>
</g>
</svg>
